<svg xmlns="http://www.w3.org/2000/svg" version="1.1" xmlns:xlink="http://www.w3.org/1999/xlink" viewBox="0 0 200 200"><rect width="200" height="200" fill="url('#gradient')"></rect><defs><linearGradient id="gradient" gradientTransform="rotate(45 0.5 0.5)"><stop offset="0%" stop-color="#5f645b"></stop><stop offset="100%" stop-color="#110902"></stop></linearGradient></defs><g><g fill="#ffffff" transform="matrix(2.2225973712769806,0,0,2.2225973712769806,10.063731491109309,116.44956383106577)" stroke="#a7b7b5" stroke-width="0"><path d="M9.98 0L9.15-2.66L4.45-2.66L3.63 0L-0.03 0L5.19-14.22L8.41-14.22L13.66 0L9.98 0ZM6.80-10.23L5.27-5.30L8.33-5.30L6.80-10.23ZM19.01-2.34L19.01-2.34Q19.71-2.34 20.09-2.72Q20.47-3.10 20.46-3.77L20.46-3.77L23.54-3.77Q23.54-2.03 22.30-0.92Q21.05 0.20 19.09 0.20L19.09 0.20Q16.79 0.20 15.46-1.25Q14.13-2.70 14.13-5.25L14.13-5.25L14.13-5.39Q14.13-6.99 14.72-8.22Q15.31-9.44 16.43-10.10Q17.54-10.76 19.06-10.76L19.06-10.76Q21.12-10.76 22.33-9.62Q23.54-8.48 23.54-6.52L23.54-6.52L20.46-6.52Q20.46-7.34 20.06-7.78Q19.66-8.22 18.98-8.22L18.98-8.22Q17.71-8.22 17.49-6.59L17.49-6.59Q17.42-6.07 17.42-5.17L17.42-5.17Q17.42-3.57 17.80-2.96Q18.18-2.34 19.01-2.34ZM29.40-2.34L29.40-2.34Q30.10-2.34 30.48-2.72Q30.86-3.10 30.85-3.77L30.85-3.77L33.94-3.77Q33.94-2.03 32.69-0.92Q31.45 0.20 29.48 0.20L29.48 0.20Q27.18 0.20 25.85-1.25Q24.52-2.70 24.52-5.25L24.52-5.25L24.52-5.39Q24.52-6.99 25.11-8.22Q25.70-9.44 26.82-10.10Q27.93-10.76 29.45-10.76L29.45-10.76Q31.51-10.76 32.72-9.62Q33.94-8.48 33.94-6.52L33.94-6.52L30.85-6.52Q30.85-7.34 30.45-7.78Q30.05-8.22 29.38-8.22L29.38-8.22Q28.10-8.22 27.88-6.59L27.88-6.59Q27.81-6.07 27.81-5.17L27.81-5.17Q27.81-3.57 28.19-2.96Q28.57-2.34 29.40-2.34ZM41.72 0L41.62-1.14Q40.58 0.20 38.80 0.20L38.80 0.20Q37.06 0.20 36.17-0.82Q35.27-1.83 35.27-3.72L35.27-3.72L35.27-10.57L38.56-10.57L38.56-3.70Q38.56-2.34 39.88-2.34L39.88-2.34Q41.02-2.34 41.49-3.15L41.49-3.15L41.49-10.57L44.80-10.57L44.80 0L41.72 0ZM54.09-3.78L54.09-3.78Q54.09-4.53 53.56-4.95Q53.03-5.37 51.69-5.82Q50.35-6.27 49.50-6.69L49.50-6.69Q46.74-8.05 46.74-10.42L46.74-10.42Q46.74-11.60 47.43-12.50Q48.12-13.41 49.38-13.91Q50.63-14.41 52.21-14.41L52.21-14.41Q53.74-14.41 54.96-13.87Q56.17-13.32 56.85-12.31Q57.52-11.30 57.52-10L57.52-10L54.10-10Q54.10-10.87 53.57-11.35Q53.04-11.83 52.13-11.83L52.13-11.83Q51.21-11.83 50.68-11.42Q50.15-11.02 50.15-10.39L50.15-10.39Q50.15-9.84 50.73-9.40Q51.32-8.96 52.79-8.48Q54.27-8.01 55.21-7.46L55.21-7.46Q57.52-6.13 57.52-3.80L57.52-3.80Q57.52-1.93 56.11-0.87Q54.71 0.20 52.26 0.20L52.26 0.20Q50.53 0.20 49.13-0.42Q47.72-1.04 47.02-2.12Q46.31-3.20 46.31-4.61L46.31-4.61L49.75-4.61Q49.75-3.47 50.34-2.92Q50.93-2.38 52.26-2.38L52.26-2.38Q53.11-2.38 53.60-2.75Q54.09-3.12 54.09-3.78ZM68.37 0L65.08 0Q64.90-0.32 64.77-0.95L64.77-0.95Q63.86 0.20 62.23 0.20L62.23 0.20Q60.73 0.20 59.69-0.71Q58.64-1.61 58.64-2.98L58.64-2.98Q58.64-4.70 59.91-5.58Q61.18-6.46 63.60-6.46L63.60-6.46L64.62-6.46L64.62-7.01Q64.62-8.47 63.36-8.47L63.36-8.47Q62.19-8.47 62.19-7.31L62.19-7.31L58.90-7.31Q58.90-8.85 60.20-9.80Q61.50-10.76 63.53-10.76Q65.55-10.76 66.72-9.78Q67.89-8.79 67.92-7.07L67.92-7.07L67.92-2.39Q67.94-0.94 68.37-0.17L68.37-0.17L68.37 0ZM63.02-2.15L63.02-2.15Q63.63-2.15 64.04-2.41Q64.44-2.68 64.62-3.01L64.62-3.01L64.62-4.70L63.66-4.70Q61.94-4.70 61.94-3.15L61.94-3.15Q61.94-2.71 62.25-2.43Q62.55-2.15 63.02-2.15ZM73.21-15L73.21 0L69.91 0L69.91-15L73.21-15ZM75.78-13.19L79.07-13.19L79.07-10.57L80.81-10.57L80.81-8.28L79.07-8.28L79.07-3.45Q79.07-2.85 79.29-2.62Q79.50-2.38 80.14-2.38L80.14-2.38Q80.63-2.38 80.96-2.44L80.96-2.44L80.96-0.09Q80.07 0.20 79.10 0.20L79.10 0.20Q77.40 0.20 76.59-0.61Q75.78-1.41 75.78-3.04L75.78-3.04L75.78-8.28L74.43-8.28L74.43-10.57L75.78-10.57L75.78-13.19Z"></path></g></g></svg>